<svg xmlns="http://www.w3.org/2000/svg" width="600" height="230"><g fill="#29405C" fill-rule="evenodd"><path d="M526.761 24.658l-8.5 3.308a1.5 1.5 0 0 0-.234 2.68l7.796 4.735a1.5 1.5 0 0 1 .72 1.196l.52 9.107a1.5 1.5 0 0 0 2.476 1.051l6.911-5.952a1.5 1.5 0 0 1 1.36-.314l8.822 2.32a1.5 1.5 0 0 0 1.765-2.03l-3.525-8.414a1.5 1.5 0 0 1 .122-1.39l4.932-7.673a1.5 1.5 0 0 0-1.385-2.306l-9.09.752a1.5 1.5 0 0 1-1.286-.545l-5.773-7.062a1.5 1.5 0 0 0-2.621.605l-2.094 8.878a1.5 1.5 0 0 1-.916 1.054z" opacity=".99"/><path d="M386.307 216.91l-5.476-1.915a1.5 1.5 0 0 1-.327-2.67l4.85-3.182a1.5 1.5 0 0 0 .677-1.221l.128-5.8a1.5 1.5 0 0 1 2.438-1.137l4.525 3.63a1.5 1.5 0 0 0 1.37.266l5.556-1.67a1.5 1.5 0 0 1 1.835 1.968l-2.054 5.425a1.5 1.5 0 0 0 .17 1.386l3.306 4.767A1.5 1.5 0 0 1 402 219.11l-5.794-.277a1.5 1.5 0 0 0-1.265.59l-3.513 4.617a1.5 1.5 0 0 1-2.64-.513l-1.528-5.597a1.5 1.5 0 0 0-.953-1.02z" opacity=".81"/><path d="M198.75 182.203l5.209-1.666a1.5 1.5 0 0 1 1.868 1.935l-1.846 5.148a1.5 1.5 0 0 0 .194 1.383l3.194 4.44a1.5 1.5 0 0 1-1.263 2.374l-5.466-.165a1.5 1.5 0 0 0-1.255.612l-3.235 4.41a1.5 1.5 0 0 1-2.65-.468l-1.532-5.25a1.5 1.5 0 0 0-.97-1.004l-5.193-1.714a1.5 1.5 0 0 1-.374-2.664l4.52-3.08a1.5 1.5 0 0 0 .655-1.232l.025-5.469a1.5 1.5 0 0 1 2.418-1.18l4.326 3.348a1.5 1.5 0 0 0 1.374.242z" opacity=".8"/><path d="M220.811 86.152l-5.433 5.114a1.5 1.5 0 0 0 .787 2.573l7.364 1.201a1.5 1.5 0 0 1 1.115.84l3.184 6.748a1.5 1.5 0 0 0 2.69.047l3.419-6.632a1.5 1.5 0 0 1 1.143-.801l7.401-.944a1.5 1.5 0 0 0 .876-2.544l-5.251-5.3a1.5 1.5 0 0 1-.408-1.335l1.39-7.33a1.5 1.5 0 0 0-2.15-1.62l-6.663 3.356a1.5 1.5 0 0 1-1.396-.024l-6.542-3.587a1.5 1.5 0 0 0-2.204 1.543l1.133 7.375a1.5 1.5 0 0 1-.455 1.32z" opacity=".91"/><path d="M17.373 55.127l-1.391-5.29a1.5 1.5 0 0 1 2.03-1.764l5.044 2.113a1.5 1.5 0 0 0 1.391-.121l4.6-2.957a1.5 1.5 0 0 1 2.307 1.385l-.452 5.45a1.5 1.5 0 0 0 .546 1.285l4.234 3.462a1.5 1.5 0 0 1-.605 2.621l-5.323 1.255a1.5 1.5 0 0 0-1.054.916l-1.984 5.097a1.5 1.5 0 0 1-2.68.234l-2.838-4.674a1.5 1.5 0 0 0-1.197-.72l-5.46-.311a1.5 1.5 0 0 1-1.051-2.476l3.569-4.145a1.5 1.5 0 0 0 .314-1.36z" opacity=".86"/><path d="M563.207 185.195l7.156-2.289a2 2 0 0 1 2.492 2.58l-2.537 7.073a2 2 0 0 0 .26 1.843l4.387 6.1a2 2 0 0 1-1.684 3.166l-7.51-.227a2 2 0 0 0-1.673.816l-4.445 6.058a2 2 0 0 1-3.532-.623l-2.105-7.213a2 2 0 0 0-1.293-1.339l-7.134-2.355a2 2 0 0 1-.5-3.552l6.21-4.23a2 2 0 0 0 .873-1.644l.036-7.513a2 2 0 0 1 3.223-1.572l5.943 4.598a2 2 0 0 0 1.833.323z" opacity=".94"/><path d="M493.856 108.218l3.994-11.135a2 2 0 0 0-2.492-2.58l-11.267 3.603a2 2 0 0 1-1.834-.323l-9.355-7.24a2 2 0 0 0-3.224 1.573l-.056 11.83a2 2 0 0 1-.873 1.643l-9.777 6.66a2 2 0 0 0 .5 3.553l11.233 3.708a2 2 0 0 1 1.293 1.339l3.314 11.356a2 2 0 0 0 3.532.623l6.998-9.538a2 2 0 0 1 1.673-.816l11.825.358a2 2 0 0 0 1.684-3.168l-6.909-9.602a2 2 0 0 1-.259-1.844z" opacity=".77"/><path d="M333.756 64.29l-8.83 2.487a2 2 0 0 1-2.4-2.665l3.397-8.522a2 2 0 0 0-.195-1.85l-5.094-7.63a2 2 0 0 1 1.793-3.106l9.154.597a2 2 0 0 0 1.7-.757l5.682-7.203a2 2 0 0 1 3.509.746l2.26 8.89a2 2 0 0 0 1.246 1.384l8.606 3.178a2 2 0 0 1 .375 3.567l-7.757 4.897a2 2 0 0 0-.93 1.612l-.364 9.167a2 2 0 0 1-3.277 1.459l-7.054-5.864a2 2 0 0 0-1.821-.387z" opacity=".76"/><path d="M396.348 127.987l1.082-3.598a1 1 0 0 0-1.312-1.223l-3.513 1.33a1 1 0 0 1-.924-.114l-3.087-2.14a1 1 0 0 0-1.569.87l.18 3.752a1 1 0 0 1-.394.843l-2.99 2.275a1 1 0 0 0 .343 1.76l3.624.99a1 1 0 0 1 .68.635l1.24 3.546a1 1 0 0 0 1.78.218l2.06-3.14a1 1 0 0 1 .815-.452l3.756-.083a1 1 0 0 0 .757-1.625l-2.35-2.93a1 1 0 0 1-.178-.914z" opacity=".93"/><path d="M169.544 13.66l-7.028-.829a1 1 0 0 0-.977 1.504l3.617 6.083a1 1 0 0 1 .049.93l-2.961 6.428a1 1 0 0 0 1.128 1.393l6.903-1.56a1 1 0 0 1 .9.242l5.198 4.802a1 1 0 0 0 1.674-.643l.65-7.047a1 1 0 0 1 .507-.78l6.173-3.46a1 1 0 0 0-.094-1.791l-6.501-2.796a1 1 0 0 1-.586-.723l-1.383-6.941a1 1 0 0 0-1.732-.464l-4.668 5.32a1 1 0 0 1-.869.333z" opacity=".85"/><path d="M59.418 187.862l-5.953-3.827a1 1 0 0 0-1.537.924l.584 7.053a1 1 0 0 1-.364.856l-5.479 4.48a1 1 0 0 0 .404 1.747l6.888 1.624a1 1 0 0 1 .702.61l2.567 6.596a1 1 0 0 0 1.787.156l3.673-6.049a1 1 0 0 1 .798-.48l7.065-.403a1 1 0 0 0 .7-1.65l-4.617-5.363a1 1 0 0 1-.21-.907l1.8-6.844a1 1 0 0 0-1.353-1.177l-6.527 2.735a1 1 0 0 1-.928-.081z" opacity=".8"/><path d="M127.474 126.551l-3.76 2.326a1 1 0 0 1-1.521-.95l.441-4.4a1 1 0 0 0-.348-.862l-3.373-2.858a1 1 0 0 1 .433-1.74l4.32-.94a1 1 0 0 0 .713-.598l1.675-4.09a1 1 0 0 1 1.79-.126l2.228 3.818a1 1 0 0 0 .789.494l4.408.329a1 1 0 0 1 .672 1.662l-2.942 3.3a1 1 0 0 0-.226.902l1.05 4.295a1 1 0 0 1-1.374 1.153l-4.047-1.78a1 1 0 0 0-.928.065z" opacity=".82"/></g></svg>