<svg width="1120" height="960" viewBox="0 0 1120 960" fill="none" xmlns="http://www.w3.org/2000/svg">
<g clip-path="url(#clip0_924_7367)">
<rect width="1120" height="960" fill="#01010C"/>
<circle cx="591.705" cy="347.54" r="1" transform="rotate(-74.4832 591.705 347.54)" fill="white" fill-opacity="0.466667"/>
<circle cx="582.728" cy="469.585" r="1" transform="rotate(-74.4832 582.728 469.585)" fill="white"/>
<circle cx="582.728" cy="469.585" r="1" transform="rotate(-74.4832 582.728 469.585)" fill="white"/>
<circle cx="700.855" cy="165.607" r="0.5" transform="rotate(-74.4832 700.855 165.607)" fill="white" fill-opacity="0.6"/>
<circle cx="620.597" cy="296.113" r="0.5" transform="rotate(-74.4832 620.597 296.113)" fill="white" fill-opacity="0.6"/>
<g filter="url(#filter0_f_924_7367)">
<circle cx="621.677" cy="155.786" r="1" transform="rotate(-74.4832 621.677 155.786)" fill="white"/>
</g>
<circle cx="603.265" cy="173.507" r="1" transform="rotate(-74.4832 603.265 173.507)" fill="white"/>
<g filter="url(#filter1_f_924_7367)">
<circle cx="672.355" cy="255.478" r="0.5" transform="rotate(-74.4832 672.355 255.478)" fill="white" fill-opacity="0.8"/>
</g>
<g filter="url(#filter2_f_924_7367)">
<circle cx="607.03" cy="256.835" r="0.5" transform="rotate(-74.4832 607.03 256.835)" fill="white"/>
</g>
<circle cx="618.209" cy="401.601" r="1" transform="rotate(-74.4832 618.209 401.601)" fill="white"/>
<circle cx="1" cy="1" r="1" transform="matrix(0.267522 0.963552 0.963552 -0.267522 462.475 343.838)" fill="white" fill-opacity="0.466667"/>
<circle cx="1" cy="1" r="1" transform="matrix(0.267522 0.963552 0.963552 -0.267522 453.497 221.793)" fill="white"/>
<circle cx="1" cy="1" r="1" transform="matrix(0.267522 0.963552 0.963552 -0.267522 453.497 221.793)" fill="white"/>
<circle cx="0.5" cy="0.5" r="0.5" transform="matrix(0.267522 0.963552 0.963552 -0.267522 572.239 526.119)" fill="white" fill-opacity="0.6"/>
<g filter="url(#filter3_f_924_7367)">
<circle cx="1" cy="1" r="1" transform="matrix(0.267522 0.963552 0.963552 -0.267522 618.612 809.023)" fill="white"/>
</g>
<circle cx="0.5" cy="0.5" r="0.5" transform="matrix(0.267522 0.963552 0.963552 -0.267522 491.982 395.613)" fill="white" fill-opacity="0.6"/>
<g filter="url(#filter4_f_924_7367)">
<circle cx="1" cy="1" r="1" transform="matrix(0.267522 0.963552 0.963552 -0.267522 492.446 535.592)" fill="white"/>
</g>
<circle cx="1" cy="1" r="1" transform="matrix(0.267522 0.963552 0.963552 -0.267522 474.034 517.871)" fill="white"/>
<g filter="url(#filter5_f_924_7367)">
<circle cx="0.5" cy="0.5" r="0.5" transform="matrix(0.267522 0.963552 0.963552 -0.267522 543.739 436.248)" fill="white" fill-opacity="0.8"/>
</g>
<g filter="url(#filter6_f_924_7367)">
<circle cx="0.5" cy="0.5" r="0.5" transform="matrix(0.267522 0.963552 0.963552 -0.267522 478.414 434.893)" fill="white"/>
</g>
<circle cx="1" cy="1" r="1" transform="matrix(0.267522 0.963552 0.963552 -0.267522 488.978 289.777)" fill="white"/>
<g filter="url(#filter7_f_924_7367)">
<circle cx="1" cy="1" r="1" transform="matrix(0.267522 0.963552 0.963552 -0.267522 412.434 275.745)" fill="white"/>
</g>
<circle cx="0.5" cy="0.5" r="0.5" transform="matrix(0.267522 0.963552 0.963552 -0.267522 408.546 115.961)" fill="white" fill-opacity="0.6"/>
<g filter="url(#filter8_f_924_7367)">
<circle cx="1" cy="1" r="1" transform="matrix(0.267522 0.963552 0.963552 -0.267522 367 179.387)" fill="white"/>
</g>
<circle cx="1088.77" cy="187.994" r="1" transform="rotate(-36.384 1088.77 187.994)" fill="white" fill-opacity="0.466667"/>
<circle cx="1006.4" cy="278.498" r="1" transform="rotate(-36.384 1006.4 278.498)" fill="white"/>
<circle cx="1006.4" cy="278.498" r="1" transform="rotate(-36.384 1006.4 278.498)" fill="white"/>
<circle cx="1076.27" cy="246.89" r="1" transform="rotate(-36.384 1076.27 246.89)" fill="white"/>
<circle cx="1" cy="1" r="1" transform="matrix(-0.38401 0.923329 0.923329 0.38401 989.354 105.342)" fill="white" fill-opacity="0.466667"/>
<circle cx="1" cy="1" r="1" transform="matrix(-0.38401 0.923329 0.923329 0.38401 1057.59 3.76074)" fill="white"/>
<circle cx="1" cy="1" r="1" transform="matrix(-0.38401 0.923329 0.923329 0.38401 1057.59 3.76074)" fill="white"/>
<circle cx="0.5" cy="0.5" r="0.5" transform="matrix(-0.38401 0.923329 0.923329 0.38401 963.26 316.515)" fill="white" fill-opacity="0.6"/>
<g filter="url(#filter9_f_924_7367)">
<circle cx="1" cy="1" r="1" transform="matrix(-0.38401 0.923329 0.923329 0.38401 825.194 567.758)" fill="white"/>
</g>
<circle cx="0.5" cy="0.5" r="0.5" transform="matrix(-0.38401 0.923329 0.923329 0.38401 980.628 164.294)" fill="white" fill-opacity="0.6"/>
<g filter="url(#filter10_f_924_7367)">
<circle cx="1" cy="1" r="1" transform="matrix(-0.38401 0.923329 0.923329 0.38401 894.623 274.735)" fill="white"/>
</g>
<circle cx="1" cy="1" r="1" transform="matrix(-0.38401 0.923329 0.923329 0.38401 891.068 249.429)" fill="white"/>
<g filter="url(#filter11_f_924_7367)">
<circle cx="0.5" cy="0.5" r="0.5" transform="matrix(-0.38401 0.923329 0.923329 0.38401 996.285 228.206)" fill="white" fill-opacity="0.8"/>
</g>
<g filter="url(#filter12_f_924_7367)">
<circle cx="0.5" cy="0.5" r="0.5" transform="matrix(-0.38401 0.923329 0.923329 0.38401 945.714 186.832)" fill="white"/>
</g>
<circle cx="1" cy="1" r="1" transform="matrix(-0.38401 0.923329 0.923329 0.38401 1043.57 79.1523)" fill="white"/>
<g filter="url(#filter13_f_924_7367)">
<circle cx="1" cy="1" r="1" transform="matrix(-0.38401 0.923329 0.923329 0.38401 991.989 20.8799)" fill="white"/>
</g>
<circle cx="1" cy="1" r="1" transform="matrix(-0.805059 -0.593194 -0.593194 0.805059 13.0303 211.782)" fill="white" fill-opacity="0.466667"/>
<circle cx="1" cy="1" r="1" transform="matrix(-0.805059 -0.593194 -0.593194 0.805059 95.3989 302.286)" fill="white"/>
<circle cx="1" cy="1" r="1" transform="matrix(-0.805059 -0.593194 -0.593194 0.805059 95.3989 302.286)" fill="white"/>
<circle cx="1" cy="1" r="1" transform="matrix(-0.805059 -0.593194 -0.593194 0.805059 25.5298 270.678)" fill="white"/>
<circle cx="110.505" cy="130.649" r="1" transform="rotate(67.4177 110.505 130.649)" fill="white" fill-opacity="0.466667"/>
<circle cx="42.2654" cy="29.0681" r="1" transform="rotate(67.4177 42.2654 29.0681)" fill="white"/>
<circle cx="42.2654" cy="29.0681" r="1" transform="rotate(67.4177 42.2654 29.0681)" fill="white"/>
<circle cx="136.868" cy="341.168" r="0.5" transform="rotate(67.4177 136.868 341.168)" fill="white" fill-opacity="0.6"/>
<g filter="url(#filter14_f_924_7367)">
<circle cx="274.664" cy="593.065" r="1" transform="rotate(67.4177 274.664 593.065)" fill="white"/>
</g>
<circle cx="119.501" cy="188.948" r="0.5" transform="rotate(67.4177 119.501 188.948)" fill="white" fill-opacity="0.6"/>
<g filter="url(#filter15_f_924_7367)">
<circle cx="205.236" cy="300.043" r="1" transform="rotate(67.4177 205.236 300.043)" fill="white"/>
</g>
<circle cx="208.791" cy="274.736" r="1" transform="rotate(67.4177 208.791 274.736)" fill="white"/>
<g filter="url(#filter16_f_924_7367)">
<circle cx="103.843" cy="252.86" r="0.5" transform="rotate(67.4177 103.843 252.86)" fill="white" fill-opacity="0.8"/>
</g>
<g filter="url(#filter17_f_924_7367)">
<circle cx="154.414" cy="211.486" r="0.5" transform="rotate(67.4177 154.414 211.486)" fill="white"/>
</g>
<circle cx="56.2922" cy="104.46" r="1" transform="rotate(67.4177 56.2922 104.46)" fill="white"/>
<g filter="url(#filter18_f_924_7367)">
<circle cx="107.869" cy="46.1872" r="1" transform="rotate(67.4177 107.869 46.1872)" fill="white"/>
</g>
<g filter="url(#filter19_f_924_7367)">
<ellipse cx="560" cy="109.5" rx="573" ry="199.5" fill="url(#paint0_linear_924_7367)" fill-opacity="0.75"/>
</g>
<g clip-path="url(#clip1_924_7367)">
<g filter="url(#filter20_f_924_7367)">
<path d="M560 -483C560 -483 560 65.2859 1295 407.224H-175C560 68.2496 560 -483 560 -483Z" fill="url(#paint1_linear_924_7367)" fill-opacity="0.2"/>
<path d="M560 -483C560 -483 560 65.2859 1295 407.224H-175C560 68.2496 560 -483 560 -483Z" fill="url(#paint2_radial_924_7367)" fill-opacity="0.2"/>
</g>
<g style="mix-blend-mode:overlay" opacity="0.7" filter="url(#filter21_f_924_7367)">
<path d="M560 -483C560 -483 560 65.2859 1295 407.224H-175C560 68.2496 560 -483 560 -483Z" fill="url(#paint3_radial_924_7367)"/>
</g>
</g>
<circle cx="556.533" cy="149.705" r="1" transform="rotate(15.5169 556.533 149.705)" fill="white" fill-opacity="0.466667"/>
<circle cx="434.488" cy="140.728" r="1" transform="rotate(15.5169 434.488 140.728)" fill="white"/>
<circle cx="434.488" cy="140.728" r="1" transform="rotate(15.5169 434.488 140.728)" fill="white"/>
<circle cx="738.466" cy="258.855" r="0.5" transform="rotate(15.5169 738.466 258.855)" fill="white" fill-opacity="0.6"/>
<g filter="url(#filter22_f_924_7367)">
<circle cx="1021.72" cy="305.843" r="1" transform="rotate(15.5169 1021.72 305.843)" fill="white"/>
</g>
<circle cx="607.96" cy="178.597" r="0.5" transform="rotate(15.5169 607.96 178.597)" fill="white" fill-opacity="0.6"/>
<g filter="url(#filter23_f_924_7367)">
<circle cx="748.287" cy="179.677" r="1" transform="rotate(15.5169 748.287 179.677)" fill="white"/>
</g>
<circle cx="730.566" cy="161.265" r="1" transform="rotate(15.5169 730.566 161.265)" fill="white"/>
<g filter="url(#filter24_f_924_7367)">
<circle cx="648.595" cy="230.355" r="0.5" transform="rotate(15.5169 648.595 230.355)" fill="white" fill-opacity="0.8"/>
</g>
<g filter="url(#filter25_f_924_7367)">
<circle cx="647.239" cy="165.03" r="0.5" transform="rotate(15.5169 647.239 165.03)" fill="white"/>
</g>
<circle cx="502.472" cy="176.209" r="1" transform="rotate(15.5169 502.472 176.209)" fill="white"/>
<circle cx="1" cy="1" r="1" transform="matrix(-0.963552 0.267522 0.267522 0.963552 560.235 20.4746)" fill="white" fill-opacity="0.466667"/>
<circle cx="1" cy="1" r="1" transform="matrix(-0.963552 0.267522 0.267522 0.963552 682.28 11.4971)" fill="white"/>
<circle cx="1" cy="1" r="1" transform="matrix(-0.963552 0.267522 0.267522 0.963552 682.28 11.4971)" fill="white"/>
<circle cx="0.5" cy="0.5" r="0.5" transform="matrix(-0.963552 0.267522 0.267522 0.963552 377.954 130.239)" fill="white" fill-opacity="0.6"/>
<g filter="url(#filter26_f_924_7367)">
<circle cx="1" cy="1" r="1" transform="matrix(-0.963552 0.267522 0.267522 0.963552 95.0493 176.612)" fill="white"/>
</g>
<circle cx="0.5" cy="0.5" r="0.5" transform="matrix(-0.963552 0.267522 0.267522 0.963552 508.459 49.9824)" fill="white" fill-opacity="0.6"/>
<g filter="url(#filter27_f_924_7367)">
<circle cx="1" cy="1" r="1" transform="matrix(-0.963552 0.267522 0.267522 0.963552 368.481 50.4463)" fill="white"/>
</g>
<circle cx="1" cy="1" r="1" transform="matrix(-0.963552 0.267522 0.267522 0.963552 386.202 32.0342)" fill="white"/>
<g filter="url(#filter28_f_924_7367)">
<circle cx="0.5" cy="0.5" r="0.5" transform="matrix(-0.963552 0.267522 0.267522 0.963552 467.825 101.739)" fill="white" fill-opacity="0.8"/>
</g>
<g filter="url(#filter29_f_924_7367)">
<circle cx="0.5" cy="0.5" r="0.5" transform="matrix(-0.963552 0.267522 0.267522 0.963552 469.18 36.4141)" fill="white"/>
</g>
<circle cx="1" cy="1" r="1" transform="matrix(-0.963552 0.267522 0.267522 0.963552 614.296 46.9775)" fill="white"/>
<rect y="480" width="1120" height="480" fill="url(#paint4_linear_924_7367)"/>
</g>
<defs>
<filter id="filter0_f_924_7367" x="616.677" y="150.786" width="10.0007" height="10.001" filterUnits="userSpaceOnUse" color-interpolation-filters="sRGB">
<feFlood flood-opacity="0" result="BackgroundImageFix"/>
<feBlend mode="normal" in="SourceGraphic" in2="BackgroundImageFix" result="shape"/>
<feGaussianBlur stdDeviation="2" result="effect1_foregroundBlur_924_7367"/>
</filter>
<filter id="filter1_f_924_7367" x="670.855" y="253.979" width="3.00024" height="3" filterUnits="userSpaceOnUse" color-interpolation-filters="sRGB">
<feFlood flood-opacity="0" result="BackgroundImageFix"/>
<feBlend mode="normal" in="SourceGraphic" in2="BackgroundImageFix" result="shape"/>
<feGaussianBlur stdDeviation="0.5" result="effect1_foregroundBlur_924_7367"/>
</filter>
<filter id="filter2_f_924_7367" x="604.53" y="254.335" width="5.00024" height="5" filterUnits="userSpaceOnUse" color-interpolation-filters="sRGB">
<feFlood flood-opacity="0" result="BackgroundImageFix"/>
<feBlend mode="normal" in="SourceGraphic" in2="BackgroundImageFix" result="shape"/>
<feGaussianBlur stdDeviation="1" result="effect1_foregroundBlur_924_7367"/>
</filter>
<filter id="filter3_f_924_7367" x="616.843" y="806.719" width="6.00073" height="6.00098" filterUnits="userSpaceOnUse" color-interpolation-filters="sRGB">
<feFlood flood-opacity="0" result="BackgroundImageFix"/>
<feBlend mode="normal" in="SourceGraphic" in2="BackgroundImageFix" result="shape"/>
<feGaussianBlur stdDeviation="1" result="effect1_foregroundBlur_924_7367"/>
</filter>
<filter id="filter4_f_924_7367" x="488.677" y="531.287" width="10.0007" height="10.001" filterUnits="userSpaceOnUse" color-interpolation-filters="sRGB">
<feFlood flood-opacity="0" result="BackgroundImageFix"/>
<feBlend mode="normal" in="SourceGraphic" in2="BackgroundImageFix" result="shape"/>
<feGaussianBlur stdDeviation="2" result="effect1_foregroundBlur_924_7367"/>
</filter>
<filter id="filter5_f_924_7367" x="542.855" y="435.096" width="3.00024" height="3" filterUnits="userSpaceOnUse" color-interpolation-filters="sRGB">
<feFlood flood-opacity="0" result="BackgroundImageFix"/>
<feBlend mode="normal" in="SourceGraphic" in2="BackgroundImageFix" result="shape"/>
<feGaussianBlur stdDeviation="0.5" result="effect1_foregroundBlur_924_7367"/>
</filter>
<filter id="filter6_f_924_7367" x="476.53" y="432.74" width="5.00024" height="5" filterUnits="userSpaceOnUse" color-interpolation-filters="sRGB">
<feFlood flood-opacity="0" result="BackgroundImageFix"/>
<feBlend mode="normal" in="SourceGraphic" in2="BackgroundImageFix" result="shape"/>
<feGaussianBlur stdDeviation="1" result="effect1_foregroundBlur_924_7367"/>
</filter>
<filter id="filter7_f_924_7367" x="410.664" y="273.44" width="6.00073" height="6.00098" filterUnits="userSpaceOnUse" color-interpolation-filters="sRGB">
<feFlood flood-opacity="0" result="BackgroundImageFix"/>
<feBlend mode="normal" in="SourceGraphic" in2="BackgroundImageFix" result="shape"/>
<feGaussianBlur stdDeviation="1" result="effect1_foregroundBlur_924_7367"/>
</filter>
<filter id="filter8_f_924_7367" x="365.231" y="177.082" width="6.00073" height="6.00098" filterUnits="userSpaceOnUse" color-interpolation-filters="sRGB">
<feFlood flood-opacity="0" result="BackgroundImageFix"/>
<feBlend mode="normal" in="SourceGraphic" in2="BackgroundImageFix" result="shape"/>
<feGaussianBlur stdDeviation="1" result="effect1_foregroundBlur_924_7367"/>
</filter>
<filter id="filter9_f_924_7367" x="822.733" y="566.064" width="6.00049" height="6.00098" filterUnits="userSpaceOnUse" color-interpolation-filters="sRGB">
<feFlood flood-opacity="0" result="BackgroundImageFix"/>
<feBlend mode="normal" in="SourceGraphic" in2="BackgroundImageFix" result="shape"/>
<feGaussianBlur stdDeviation="1" result="effect1_foregroundBlur_924_7367"/>
</filter>
<filter id="filter10_f_924_7367" x="890.162" y="271.042" width="10.0005" height="10.001" filterUnits="userSpaceOnUse" color-interpolation-filters="sRGB">
<feFlood flood-opacity="0" result="BackgroundImageFix"/>
<feBlend mode="normal" in="SourceGraphic" in2="BackgroundImageFix" result="shape"/>
<feGaussianBlur stdDeviation="2" result="effect1_foregroundBlur_924_7367"/>
</filter>
<filter id="filter11_f_924_7367" x="995.054" y="227.359" width="3.00024" height="3" filterUnits="userSpaceOnUse" color-interpolation-filters="sRGB">
<feFlood flood-opacity="0" result="BackgroundImageFix"/>
<feBlend mode="normal" in="SourceGraphic" in2="BackgroundImageFix" result="shape"/>
<feGaussianBlur stdDeviation="0.5" result="effect1_foregroundBlur_924_7367"/>
</filter>
<filter id="filter12_f_924_7367" x="943.483" y="184.985" width="5.00024" height="5" filterUnits="userSpaceOnUse" color-interpolation-filters="sRGB">
<feFlood flood-opacity="0" result="BackgroundImageFix"/>
<feBlend mode="normal" in="SourceGraphic" in2="BackgroundImageFix" result="shape"/>
<feGaussianBlur stdDeviation="1" result="effect1_foregroundBlur_924_7367"/>
</filter>
<filter id="filter13_f_924_7367" x="989.528" y="19.1865" width="6.00049" height="6.00098" filterUnits="userSpaceOnUse" color-interpolation-filters="sRGB">
<feFlood flood-opacity="0" result="BackgroundImageFix"/>
<feBlend mode="normal" in="SourceGraphic" in2="BackgroundImageFix" result="shape"/>
<feGaussianBlur stdDeviation="1" result="effect1_foregroundBlur_924_7367"/>
</filter>
<filter id="filter14_f_924_7367" x="271.664" y="590.064" width="6.00049" height="6.00098" filterUnits="userSpaceOnUse" color-interpolation-filters="sRGB">
<feFlood flood-opacity="0" result="BackgroundImageFix"/>
<feBlend mode="normal" in="SourceGraphic" in2="BackgroundImageFix" result="shape"/>
<feGaussianBlur stdDeviation="1" result="effect1_foregroundBlur_924_7367"/>
</filter>
<filter id="filter15_f_924_7367" x="200.236" y="295.042" width="10.0005" height="10.001" filterUnits="userSpaceOnUse" color-interpolation-filters="sRGB">
<feFlood flood-opacity="0" result="BackgroundImageFix"/>
<feBlend mode="normal" in="SourceGraphic" in2="BackgroundImageFix" result="shape"/>
<feGaussianBlur stdDeviation="2" result="effect1_foregroundBlur_924_7367"/>
</filter>
<filter id="filter16_f_924_7367" x="102.343" y="251.359" width="3.00024" height="3" filterUnits="userSpaceOnUse" color-interpolation-filters="sRGB">
<feFlood flood-opacity="0" result="BackgroundImageFix"/>
<feBlend mode="normal" in="SourceGraphic" in2="BackgroundImageFix" result="shape"/>
<feGaussianBlur stdDeviation="0.5" result="effect1_foregroundBlur_924_7367"/>
</filter>
<filter id="filter17_f_924_7367" x="151.914" y="208.985" width="5.00024" height="5" filterUnits="userSpaceOnUse" color-interpolation-filters="sRGB">
<feFlood flood-opacity="0" result="BackgroundImageFix"/>
<feBlend mode="normal" in="SourceGraphic" in2="BackgroundImageFix" result="shape"/>
<feGaussianBlur stdDeviation="1" result="effect1_foregroundBlur_924_7367"/>
</filter>
<filter id="filter18_f_924_7367" x="104.869" y="43.1865" width="6.00049" height="6.00098" filterUnits="userSpaceOnUse" color-interpolation-filters="sRGB">
<feFlood flood-opacity="0" result="BackgroundImageFix"/>
<feBlend mode="normal" in="SourceGraphic" in2="BackgroundImageFix" result="shape"/>
<feGaussianBlur stdDeviation="1" result="effect1_foregroundBlur_924_7367"/>
</filter>
<filter id="filter19_f_924_7367" x="-425" y="-502" width="1970" height="1223" filterUnits="userSpaceOnUse" color-interpolation-filters="sRGB">
<feFlood flood-opacity="0" result="BackgroundImageFix"/>
<feBlend mode="normal" in="SourceGraphic" in2="BackgroundImageFix" result="shape"/>
<feGaussianBlur stdDeviation="206" result="effect1_foregroundBlur_924_7367"/>
</filter>
<filter id="filter20_f_924_7367" x="-210.564" y="-518.564" width="1541.13" height="961.353" filterUnits="userSpaceOnUse" color-interpolation-filters="sRGB">
<feFlood flood-opacity="0" result="BackgroundImageFix"/>
<feBlend mode="normal" in="SourceGraphic" in2="BackgroundImageFix" result="shape"/>
<feGaussianBlur stdDeviation="17.7822" result="effect1_foregroundBlur_924_7367"/>
</filter>
<filter id="filter21_f_924_7367" x="-210.564" y="-518.564" width="1541.13" height="961.353" filterUnits="userSpaceOnUse" color-interpolation-filters="sRGB">
<feFlood flood-opacity="0" result="BackgroundImageFix"/>
<feBlend mode="normal" in="SourceGraphic" in2="BackgroundImageFix" result="shape"/>
<feGaussianBlur stdDeviation="17.7822" result="effect1_foregroundBlur_924_7367"/>
</filter>
<filter id="filter22_f_924_7367" x="1018.72" y="302.843" width="6.00049" height="6.00098" filterUnits="userSpaceOnUse" color-interpolation-filters="sRGB">
<feFlood flood-opacity="0" result="BackgroundImageFix"/>
<feBlend mode="normal" in="SourceGraphic" in2="BackgroundImageFix" result="shape"/>
<feGaussianBlur stdDeviation="1" result="effect1_foregroundBlur_924_7367"/>
</filter>
<filter id="filter23_f_924_7367" x="743.286" y="174.677" width="10.0005" height="10.001" filterUnits="userSpaceOnUse" color-interpolation-filters="sRGB">
<feFlood flood-opacity="0" result="BackgroundImageFix"/>
<feBlend mode="normal" in="SourceGraphic" in2="BackgroundImageFix" result="shape"/>
<feGaussianBlur stdDeviation="2" result="effect1_foregroundBlur_924_7367"/>
</filter>
<filter id="filter24_f_924_7367" x="647.095" y="228.854" width="3.00024" height="3" filterUnits="userSpaceOnUse" color-interpolation-filters="sRGB">
<feFlood flood-opacity="0" result="BackgroundImageFix"/>
<feBlend mode="normal" in="SourceGraphic" in2="BackgroundImageFix" result="shape"/>
<feGaussianBlur stdDeviation="0.5" result="effect1_foregroundBlur_924_7367"/>
</filter>
<filter id="filter25_f_924_7367" x="644.739" y="162.529" width="5.00024" height="5" filterUnits="userSpaceOnUse" color-interpolation-filters="sRGB">
<feFlood flood-opacity="0" result="BackgroundImageFix"/>
<feBlend mode="normal" in="SourceGraphic" in2="BackgroundImageFix" result="shape"/>
<feGaussianBlur stdDeviation="1" result="effect1_foregroundBlur_924_7367"/>
</filter>
<filter id="filter26_f_924_7367" x="91.353" y="174.843" width="6.00049" height="6.00098" filterUnits="userSpaceOnUse" color-interpolation-filters="sRGB">
<feFlood flood-opacity="0" result="BackgroundImageFix"/>
<feBlend mode="normal" in="SourceGraphic" in2="BackgroundImageFix" result="shape"/>
<feGaussianBlur stdDeviation="1" result="effect1_foregroundBlur_924_7367"/>
</filter>
<filter id="filter27_f_924_7367" x="362.785" y="46.6768" width="10.0005" height="10.001" filterUnits="userSpaceOnUse" color-interpolation-filters="sRGB">
<feFlood flood-opacity="0" result="BackgroundImageFix"/>
<feBlend mode="normal" in="SourceGraphic" in2="BackgroundImageFix" result="shape"/>
<feGaussianBlur stdDeviation="2" result="effect1_foregroundBlur_924_7367"/>
</filter>
<filter id="filter28_f_924_7367" x="465.977" y="100.854" width="3.00024" height="3" filterUnits="userSpaceOnUse" color-interpolation-filters="sRGB">
<feFlood flood-opacity="0" result="BackgroundImageFix"/>
<feBlend mode="normal" in="SourceGraphic" in2="BackgroundImageFix" result="shape"/>
<feGaussianBlur stdDeviation="0.5" result="effect1_foregroundBlur_924_7367"/>
</filter>
<filter id="filter29_f_924_7367" x="466.332" y="34.5293" width="5.00024" height="5" filterUnits="userSpaceOnUse" color-interpolation-filters="sRGB">
<feFlood flood-opacity="0" result="BackgroundImageFix"/>
<feBlend mode="normal" in="SourceGraphic" in2="BackgroundImageFix" result="shape"/>
<feGaussianBlur stdDeviation="1" result="effect1_foregroundBlur_924_7367"/>
</filter>
<linearGradient id="paint0_linear_924_7367" x1="560" y1="-90" x2="560" y2="309" gradientUnits="userSpaceOnUse">
<stop stop-color="#5383FF"/>
<stop offset="1" stop-color="#5135FF"/>
</linearGradient>
<linearGradient id="paint1_linear_924_7367" x1="560" y1="-422.244" x2="560" y2="348.32" gradientUnits="userSpaceOnUse">
<stop offset="0.228846" stop-color="#5381FF" stop-opacity="0"/>
<stop offset="0.653846" stop-color="#5381FF"/>
<stop offset="0.894231" stop-color="#5381FF" stop-opacity="0"/>
</linearGradient>
<radialGradient id="paint2_radial_924_7367" cx="0" cy="0" r="1" gradientUnits="userSpaceOnUse" gradientTransform="translate(560 50.4675) rotate(90) scale(356.756 589.101)">
<stop stop-color="#FF5EDB"/>
<stop offset="1" stop-color="#5BFDFF" stop-opacity="0"/>
</radialGradient>
<radialGradient id="paint3_radial_924_7367" cx="0" cy="0" r="1" gradientUnits="userSpaceOnUse" gradientTransform="translate(560 -127.355) rotate(90) scale(534.579 882.734)">
<stop stop-color="white"/>
<stop offset="0.704089" stop-color="white" stop-opacity="0"/>
</radialGradient>
<linearGradient id="paint4_linear_924_7367" x1="560" y1="480" x2="560" y2="960" gradientUnits="userSpaceOnUse">
<stop stop-color="#05050F" stop-opacity="0"/>
<stop offset="1" stop-color="#01010C"/>
</linearGradient>
<clipPath id="clip0_924_7367">
<rect width="1120" height="960" fill="white"/>
</clipPath>
<clipPath id="clip1_924_7367">
<rect width="1440" height="594" fill="white" transform="translate(-160)"/>
</clipPath>
</defs>
</svg>
